# xmcd
#
# Track frame offsets:
#	150
#	18811
#	33156
#	55446
#	79213
#	96150
#	118183
#	141251
#	165962
#	202162
#	230891
#
# Disc length: 3237 seconds
#
# Revision: 0
# Processed by: cddbd v1.4PL0 Copyright (c) Steve Scherf et al.
# Submitted via: dBpowerAMP V4.0
#
DISCID=940ca30b
DTITLE=Chris Duarte - Love Is Greater Than Me
DYEAR=1900
DGENRE=Blues
TTITLE0=Baddness
TTITLE1=Brand New Day
TTITLE2=All Night
TTITLE3=Metaphor Song
TTITLE4=Free 4 Me
TTITLE5=How Long
TTITLE6=Paper Dolls
TTITLE7=Metaphor Acoustic
TTITLE8=Azul Ezell
TTITLE9=Watch Out
TTITLE10=Duarte E Ezell (Opus 1 No. 3)
EXTD=
EXTT0=
EXTT1=
EXTT2=
EXTT3=
EXTT4=
EXTT5=
EXTT6=
EXTT7=
EXTT8=
EXTT9=
EXTT10=
PLAYORDER=
